<mxfile host="app.diagrams.net" agent="Mozilla/5.0 (X11; Linux x86_64) AppleWebKit/537.36 (KHTML, like Gecko) Chrome/131.0.0.0 Safari/537.36" version="25.0.3">
  <diagram name="Página-1" id="jsg99bfADvxzgNsBQDEU">
    <mxGraphModel dx="880" dy="442" grid="1" gridSize="10" guides="1" tooltips="1" connect="1" arrows="1" fold="1" page="1" pageScale="1" pageWidth="827" pageHeight="1169" math="0" shadow="0">
      <root>
        <mxCell id="0" />
        <mxCell id="1" parent="0" />
        <mxCell id="n8CN_Z542qFR7-eQqm3c-1" value="" style="rounded=0;whiteSpace=wrap;html=1;fillColor=#f9f7ed;strokeColor=#36393d;" vertex="1" parent="1">
          <mxGeometry x="160" y="40" width="520" height="430" as="geometry" />
        </mxCell>
        <mxCell id="n8CN_Z542qFR7-eQqm3c-14" style="rounded=0;orthogonalLoop=1;jettySize=auto;html=1;exitX=1;exitY=0.3333333333333333;exitDx=0;exitDy=0;exitPerimeter=0;entryX=0;entryY=0.5;entryDx=0;entryDy=0;endArrow=none;endFill=0;" edge="1" parent="1" source="n8CN_Z542qFR7-eQqm3c-2" target="n8CN_Z542qFR7-eQqm3c-4">
          <mxGeometry relative="1" as="geometry" />
        </mxCell>
        <mxCell id="n8CN_Z542qFR7-eQqm3c-15" style="rounded=0;orthogonalLoop=1;jettySize=auto;html=1;exitX=1;exitY=0.3333333333333333;exitDx=0;exitDy=0;exitPerimeter=0;entryX=0;entryY=0.5;entryDx=0;entryDy=0;endArrow=none;endFill=0;" edge="1" parent="1" source="n8CN_Z542qFR7-eQqm3c-2" target="n8CN_Z542qFR7-eQqm3c-6">
          <mxGeometry relative="1" as="geometry" />
        </mxCell>
        <mxCell id="n8CN_Z542qFR7-eQqm3c-17" style="rounded=0;orthogonalLoop=1;jettySize=auto;html=1;exitX=1;exitY=0.3333333333333333;exitDx=0;exitDy=0;exitPerimeter=0;entryX=0;entryY=0.5;entryDx=0;entryDy=0;endArrow=none;endFill=0;" edge="1" parent="1" source="n8CN_Z542qFR7-eQqm3c-2" target="n8CN_Z542qFR7-eQqm3c-9">
          <mxGeometry relative="1" as="geometry" />
        </mxCell>
        <mxCell id="n8CN_Z542qFR7-eQqm3c-24" style="rounded=0;orthogonalLoop=1;jettySize=auto;html=1;exitX=1;exitY=0.3333333333333333;exitDx=0;exitDy=0;exitPerimeter=0;entryX=0;entryY=0.5;entryDx=0;entryDy=0;endArrow=none;endFill=0;" edge="1" parent="1" source="n8CN_Z542qFR7-eQqm3c-2" target="n8CN_Z542qFR7-eQqm3c-23">
          <mxGeometry relative="1" as="geometry" />
        </mxCell>
        <mxCell id="n8CN_Z542qFR7-eQqm3c-2" value="Cliente" style="shape=umlActor;verticalLabelPosition=bottom;verticalAlign=top;html=1;" vertex="1" parent="1">
          <mxGeometry x="40" y="160" width="80" height="160" as="geometry" />
        </mxCell>
        <mxCell id="n8CN_Z542qFR7-eQqm3c-18" style="rounded=0;orthogonalLoop=1;jettySize=auto;html=1;exitX=0;exitY=0.3333333333333333;exitDx=0;exitDy=0;exitPerimeter=0;entryX=1;entryY=0.5;entryDx=0;entryDy=0;endArrow=none;endFill=0;" edge="1" parent="1" source="n8CN_Z542qFR7-eQqm3c-3" target="n8CN_Z542qFR7-eQqm3c-7">
          <mxGeometry relative="1" as="geometry" />
        </mxCell>
        <mxCell id="n8CN_Z542qFR7-eQqm3c-21" style="rounded=0;orthogonalLoop=1;jettySize=auto;html=1;exitX=0;exitY=0.3333333333333333;exitDx=0;exitDy=0;exitPerimeter=0;entryX=1;entryY=0.5;entryDx=0;entryDy=0;endArrow=none;endFill=0;" edge="1" parent="1" source="n8CN_Z542qFR7-eQqm3c-3" target="n8CN_Z542qFR7-eQqm3c-19">
          <mxGeometry relative="1" as="geometry" />
        </mxCell>
        <mxCell id="n8CN_Z542qFR7-eQqm3c-22" style="rounded=0;orthogonalLoop=1;jettySize=auto;html=1;exitX=0;exitY=0.3333333333333333;exitDx=0;exitDy=0;exitPerimeter=0;entryX=1;entryY=0.5;entryDx=0;entryDy=0;endArrow=none;endFill=0;" edge="1" parent="1" source="n8CN_Z542qFR7-eQqm3c-3" target="n8CN_Z542qFR7-eQqm3c-20">
          <mxGeometry relative="1" as="geometry" />
        </mxCell>
        <mxCell id="n8CN_Z542qFR7-eQqm3c-25" style="edgeStyle=orthogonalEdgeStyle;rounded=0;orthogonalLoop=1;jettySize=auto;html=1;endSize=10;endArrow=block;endFill=1;" edge="1" parent="1">
          <mxGeometry relative="1" as="geometry">
            <mxPoint x="760" y="350" as="sourcePoint" />
            <mxPoint x="80" y="350" as="targetPoint" />
            <Array as="points">
              <mxPoint x="760" y="500" />
              <mxPoint x="80" y="500" />
            </Array>
          </mxGeometry>
        </mxCell>
        <mxCell id="n8CN_Z542qFR7-eQqm3c-3" value="Adiministrador" style="shape=umlActor;verticalLabelPosition=bottom;verticalAlign=top;html=1;" vertex="1" parent="1">
          <mxGeometry x="720" y="160" width="80" height="160" as="geometry" />
        </mxCell>
        <mxCell id="n8CN_Z542qFR7-eQqm3c-4" value="Registrar-se no sistema&amp;nbsp;" style="ellipse;whiteSpace=wrap;html=1;fillColor=#d5e8d4;gradientColor=#97d077;strokeColor=#82b366;" vertex="1" parent="1">
          <mxGeometry x="200" y="80" width="130" height="60" as="geometry" />
        </mxCell>
        <mxCell id="n8CN_Z542qFR7-eQqm3c-5" value="Sitema de Reservas de Salas" style="text;html=1;align=center;verticalAlign=middle;resizable=0;points=[];autosize=1;strokeColor=none;fillColor=none;fontStyle=1" vertex="1" parent="1">
          <mxGeometry x="324" y="40" width="180" height="30" as="geometry" />
        </mxCell>
        <mxCell id="n8CN_Z542qFR7-eQqm3c-6" value="Fazer login" style="ellipse;whiteSpace=wrap;html=1;fillColor=#d5e8d4;gradientColor=#97d077;strokeColor=#82b366;" vertex="1" parent="1">
          <mxGeometry x="200" y="150" width="130" height="60" as="geometry" />
        </mxCell>
        <mxCell id="n8CN_Z542qFR7-eQqm3c-7" value="Cadastrar salas" style="ellipse;whiteSpace=wrap;html=1;fillColor=#d5e8d4;gradientColor=#97d077;strokeColor=#82b366;" vertex="1" parent="1">
          <mxGeometry x="510" y="80" width="130" height="60" as="geometry" />
        </mxCell>
        <mxCell id="n8CN_Z542qFR7-eQqm3c-32" style="rounded=0;orthogonalLoop=1;jettySize=auto;html=1;endArrow=open;endFill=0;dashed=1;dashPattern=8 8;" edge="1" parent="1" source="n8CN_Z542qFR7-eQqm3c-8" target="n8CN_Z542qFR7-eQqm3c-9">
          <mxGeometry relative="1" as="geometry" />
        </mxCell>
        <mxCell id="n8CN_Z542qFR7-eQqm3c-33" value="&amp;lt;&amp;lt;extends&amp;gt;&amp;gt;" style="edgeLabel;html=1;align=center;verticalAlign=middle;resizable=0;points=[];" vertex="1" connectable="0" parent="n8CN_Z542qFR7-eQqm3c-32">
          <mxGeometry x="-0.0879" relative="1" as="geometry">
            <mxPoint as="offset" />
          </mxGeometry>
        </mxCell>
        <mxCell id="n8CN_Z542qFR7-eQqm3c-8" value="Reservar salas" style="ellipse;whiteSpace=wrap;html=1;fillColor=#d5e8d4;gradientColor=#97d077;strokeColor=#82b366;" vertex="1" parent="1">
          <mxGeometry x="360" y="290" width="130" height="60" as="geometry" />
        </mxCell>
        <mxCell id="n8CN_Z542qFR7-eQqm3c-30" style="rounded=0;orthogonalLoop=1;jettySize=auto;html=1;dashed=1;dashPattern=8 8;endArrow=open;endFill=0;" edge="1" parent="1" source="n8CN_Z542qFR7-eQqm3c-9" target="n8CN_Z542qFR7-eQqm3c-10">
          <mxGeometry relative="1" as="geometry" />
        </mxCell>
        <mxCell id="n8CN_Z542qFR7-eQqm3c-31" value="&amp;lt;&amp;lt;incluir&amp;gt;&amp;gt;" style="edgeLabel;html=1;align=center;verticalAlign=middle;resizable=0;points=[];" vertex="1" connectable="0" parent="n8CN_Z542qFR7-eQqm3c-30">
          <mxGeometry x="-0.1697" y="-1" relative="1" as="geometry">
            <mxPoint x="-1" as="offset" />
          </mxGeometry>
        </mxCell>
        <mxCell id="n8CN_Z542qFR7-eQqm3c-9" value="Visualizar o calendário de disponibilidade" style="ellipse;whiteSpace=wrap;html=1;fillColor=#d5e8d4;gradientColor=#97d077;strokeColor=#82b366;" vertex="1" parent="1">
          <mxGeometry x="200" y="220" width="130" height="60" as="geometry" />
        </mxCell>
        <mxCell id="n8CN_Z542qFR7-eQqm3c-10" value="Consultar a disponibilidade de datas e horários" style="ellipse;whiteSpace=wrap;html=1;fillColor=#d5e8d4;gradientColor=#97d077;strokeColor=#82b366;" vertex="1" parent="1">
          <mxGeometry x="360" y="150" width="130" height="60" as="geometry" />
        </mxCell>
        <mxCell id="n8CN_Z542qFR7-eQqm3c-19" value="Modificar salas e horários disponíveis" style="ellipse;whiteSpace=wrap;html=1;fillColor=#d5e8d4;gradientColor=#97d077;strokeColor=#82b366;" vertex="1" parent="1">
          <mxGeometry x="510" y="150" width="130" height="60" as="geometry" />
        </mxCell>
        <mxCell id="n8CN_Z542qFR7-eQqm3c-20" value="Visualizar relatórios de uso de salas" style="ellipse;whiteSpace=wrap;html=1;fillColor=#d5e8d4;gradientColor=#97d077;strokeColor=#82b366;" vertex="1" parent="1">
          <mxGeometry x="510" y="220" width="130" height="60" as="geometry" />
        </mxCell>
        <mxCell id="n8CN_Z542qFR7-eQqm3c-23" value="Receber notificações" style="ellipse;whiteSpace=wrap;html=1;fillColor=#d5e8d4;gradientColor=#97d077;strokeColor=#82b366;" vertex="1" parent="1">
          <mxGeometry x="200" y="290" width="130" height="60" as="geometry" />
        </mxCell>
        <mxCell id="n8CN_Z542qFR7-eQqm3c-28" style="rounded=0;orthogonalLoop=1;jettySize=auto;html=1;endArrow=block;endFill=1;endSize=10;" edge="1" parent="1" source="n8CN_Z542qFR7-eQqm3c-26" target="n8CN_Z542qFR7-eQqm3c-23">
          <mxGeometry relative="1" as="geometry" />
        </mxCell>
        <mxCell id="n8CN_Z542qFR7-eQqm3c-26" value="Receber notificações via email" style="ellipse;whiteSpace=wrap;html=1;fillColor=#d5e8d4;gradientColor=#97d077;strokeColor=#82b366;" vertex="1" parent="1">
          <mxGeometry x="349" y="370" width="130" height="60" as="geometry" />
        </mxCell>
        <mxCell id="n8CN_Z542qFR7-eQqm3c-29" style="rounded=0;orthogonalLoop=1;jettySize=auto;html=1;endArrow=block;endFill=1;endSize=10;" edge="1" parent="1" source="n8CN_Z542qFR7-eQqm3c-27" target="n8CN_Z542qFR7-eQqm3c-23">
          <mxGeometry relative="1" as="geometry" />
        </mxCell>
        <mxCell id="n8CN_Z542qFR7-eQqm3c-27" value="Receber notificações via navegador" style="ellipse;whiteSpace=wrap;html=1;fillColor=#d5e8d4;gradientColor=#97d077;strokeColor=#82b366;" vertex="1" parent="1">
          <mxGeometry x="200" y="395" width="130" height="60" as="geometry" />
        </mxCell>
      </root>
    </mxGraphModel>
  </diagram>
</mxfile>
